<svg viewBox="0 0 25 25" fill="none" xmlns="http://www.w3.org/2000/svg">
<circle cx="12.3006" cy="12.3016" r="11.9572" fill="#fff"/>
<circle cx="12.3006" cy="12.3016" r="11.9572" fill="url(#avatar-face)"/>
<circle cx="12.3006" cy="12.3016" r="11.9572" stroke="url(#avatar-edge)" stroke-width="0.684729"/>
<mask id="avatar-clip" style="mask-type:alpha" maskUnits="userSpaceOnUse" x="0" y="0" width="25" height="25">
<circle cx="12.2996" cy="12.2996" r="12.2996" fill="#fff"/>
</mask>
<g mask="url(#avatar-clip)">
<path fill-rule="evenodd" clip-rule="evenodd" d="M11.0362 4.09038C10.4174 4.17749 9.61438 4.44057 9.17998 4.69836C8.40936 5.15577 7.98408 5.68851 7.64626 6.61968C7.4373 7.19553 7.41774 7.35043 7.41941 8.41198C7.42083 9.30332 7.46431 9.76626 7.60613 10.3997C7.79009 11.2214 7.79017 11.2264 7.62703 11.4251C7.39056 11.7133 7.34181 12.0314 7.45369 12.5574C7.57285 13.1172 7.80648 13.5052 8.11728 13.6592C8.29355 13.7467 8.36195 13.8528 8.40392 14.1046C8.48771 14.6066 8.94276 15.5798 9.25967 15.9346L9.54196 16.2506V17.2628C9.54196 18.1066 9.51495 18.3257 9.37966 18.5799C9.04962 19.1998 8.38285 19.5937 6.30094 20.3983C5.28623 20.7904 4.52205 21.144 3.95228 21.485C3.78797 21.5833 3.73262 21.5518 3.22982 21.0743L2.6853 20.5571V21.2479V21.9387L3.16611 22.3603C3.82794 22.9405 4.69456 23.5547 5.46735 23.9911C6.63098 24.6483 6.0944 24.5994 12.1234 24.5981L17.5275 24.597L18.3405 24.1774C19.3207 23.6715 20.2986 22.9871 21.2276 22.1568L21.9174 21.5403L21.9165 20.7658L21.9156 19.9915L21.69 20.272C21.566 20.4262 21.2294 20.7868 20.9421 21.0733L20.4198 21.5942L20.1861 21.4516C19.7132 21.1632 18.8378 20.7645 17.7783 20.3552C15.7333 19.5649 14.9251 19.04 14.733 18.3769C14.6838 18.2071 14.6434 17.6593 14.6432 17.1594L14.6426 16.2506L14.9323 15.9263C15.2557 15.5643 15.6937 14.6257 15.7797 14.1108C15.8238 13.8462 15.8888 13.7477 16.0828 13.6516C16.6651 13.363 16.9797 11.9763 16.5802 11.4586L16.3885 11.2101L16.5587 10.565C17.1038 8.49925 16.9754 6.80263 16.2002 5.82506C15.9014 5.44827 15.2647 5.07396 14.7919 4.99711C14.5965 4.96529 14.4331 4.8761 14.3514 4.7567C13.9577 4.18093 12.4892 3.88579 11.0362 4.09038Z" fill="#fff" fill-opacity="0.25"/>
</g>
<defs>
<linearGradient id="avatar-face" x1="12.3006" y1="0.00204468" x2="12.3006" y2="24.6012" gradientUnits="userSpaceOnUse">
<stop stop-color="#6C6E73"/>
<stop offset="1" stop-color="#57585A"/>
</linearGradient>
<linearGradient id="avatar-edge" x1="12.3006" y1="0.00204493" x2="20.8727" y2="43.6719" gradientUnits="userSpaceOnUse">
<stop stop-color="#F9F1E8"/>
<stop offset="1" stop-color="#F9F1E8" stop-opacity="0"/>
</linearGradient>
</defs>
</svg>
