<svg xmlns="http://www.w3.org/2000/svg" viewBox="0 0 1318 1313" fill="currentColor"><path transform="translate(0,1313) scale(0.1,-0.1)" d="M6345 13123 c-258 -11 -677 -62 -970 -119 -2355 -458 -4274 -2101 -5026 -4302 -315 -924 -408 -1826 -314 -3042 64 -823 186 -1471 495 -2630 205 -771 266 -1033 330 -1410 52 -308 69 -490 94 -1025 10 -201 105 -367 269 -469 304 -189 842 -158 1447 84 375 151 705 358 977 613 107 101 138 116 205 103 17 -3 110 -60 207 -125 720 -486 1195 -663 1976 -737 231 -23 995 -26 1210 -6 858 81 1573 279 2300 637 654 323 1214 724 1730 1240 654 654 1160 1437 1486 2297 671 1774 531 3820 -377 5502 -1013 1875 -2847 3119 -4949 3355 -320 36 -732 49 -1090 34z m470 -3233 c793 -51 1511 -369 2084 -925 554 -537 886 -1210 982 -1990 16 -129 16 -531 0 -660 -93 -752 -404 -1397 -926 -1921 -665 -668 -1561 -1019 -2481 -973 -472 24 -921 167 -1404 448 -86 50 -113 61 -150 61 -56 0 -79 -15 -195 -119 -202 -183 -460 -365 -585 -412 -30 -12 -78 -22 -106 -22 -42 -1 -58 4 -94 30 -220 163 -447 899 -534 1733 -34 322 -40 457 -40 810 1 382 13 583 55 875 184 1279 828 2259 1810 2751 483 242 1026 349 1584 314z"/></svg>
