<svg viewBox="0 0 16 16" fill="none" xmlns="http://www.w3.org/2000/svg">
<path d="M13.2198 5.79997L10.1998 2.77997C9.56649 2.14664 8.69315 1.80664 7.79982 1.8533L4.46649 2.0133C3.13315 2.0733 2.07315 3.1333 2.00649 4.45997L1.84649 7.7933C1.80649 8.68664 2.13982 9.55997 2.77315 10.1933L5.79315 13.2133C7.03315 14.4533 9.04649 14.4533 10.2932 13.2133L13.2198 10.2866C14.4665 9.0533 14.4665 7.03997 13.2198 5.79997ZM6.33315 8.2533C5.27315 8.2533 4.41315 7.3933 4.41315 6.3333C4.41315 5.2733 5.27315 4.4133 6.33315 4.4133C7.39315 4.4133 8.25315 5.2733 8.25315 6.3333C8.25315 7.3933 7.39315 8.2533 6.33315 8.2533Z" fill="currentColor"/>
</svg>
