<svg width="25" height="25" viewBox="0 0 25 25" fill="none" xmlns="http://www.w3.org/2000/svg">
<circle cx="12.5" cy="12.5" r="12.1576" fill="white"/>
<circle cx="12.5" cy="12.5" r="12.1576" fill="url(#paint0_linear_107_266)"/>
<circle cx="12.5" cy="12.5" r="12.1576" stroke="url(#paint1_linear_107_266)" stroke-width="0.684729"/>
<mask id="mask0_107_266" style="mask-type:alpha" maskUnits="userSpaceOnUse" x="-1" y="-1" width="26" height="26">
<circle cx="12.499" cy="12.4979" r="12.5" fill="#E7E7E7"/>
</mask>
<g mask="url(#mask0_107_266)">
<path fill-rule="evenodd" clip-rule="evenodd" d="M11.215 4.15495C10.5862 4.24348 9.77004 4.51085 9.32857 4.77284C8.54539 5.2377 8.11318 5.77912 7.76986 6.72546C7.55749 7.3107 7.53761 7.46812 7.53931 8.54697C7.54075 9.45283 7.58494 9.92332 7.72907 10.567C7.91603 11.4021 7.91611 11.4073 7.75031 11.6092C7.50999 11.9021 7.46045 12.2254 7.57415 12.7599C7.69525 13.3288 7.93268 13.7232 8.24855 13.8797C8.42769 13.9686 8.49721 14.0764 8.53987 14.3324C8.62502 14.8425 9.08748 15.8316 9.40955 16.1921L9.69645 16.5133V17.542C9.69645 18.3995 9.669 18.6223 9.5315 18.8806C9.19608 19.5106 8.51845 19.9109 6.40261 20.7286C5.37138 21.127 4.59474 21.4864 4.01569 21.833C3.8487 21.9329 3.79244 21.9009 3.28146 21.4156L2.72806 20.89V21.5921V22.2941L3.2167 22.7226C3.88932 23.3123 4.77006 23.9364 5.55544 24.38C6.73803 25.0478 6.19271 24.9982 12.32 24.9969L17.8121 24.9957L18.6383 24.5693C19.6345 24.0552 20.6283 23.3596 21.5724 22.5158L22.2735 21.8892L22.2726 21.1021L22.2717 20.3152L22.0425 20.6002C21.9164 20.757 21.5743 21.1235 21.2823 21.4146L20.7515 21.944L20.514 21.7991C20.0334 21.5059 19.1437 21.1007 18.067 20.6847C15.9886 19.8817 15.1673 19.3481 14.9721 18.6742C14.9221 18.5017 14.881 17.945 14.8808 17.437L14.8802 16.5133L15.1746 16.1838C15.5032 15.8158 15.9484 14.8619 16.0358 14.3386C16.0807 14.0697 16.1467 13.9696 16.3439 13.872C16.9357 13.5787 17.2554 12.1694 16.8494 11.6433L16.6545 11.3906L16.8275 10.735C17.3815 8.63566 17.251 6.91139 16.4632 5.9179C16.1595 5.53496 15.5124 5.15455 15.0319 5.07645C14.8333 5.04412 14.6673 4.95348 14.5843 4.83213C14.1842 4.24698 12.6917 3.94703 11.215 4.15495Z" fill="white" fill-opacity="0.25"/>
</g>
<defs>
<linearGradient id="paint0_linear_107_266" x1="12.5" y1="0" x2="12.5" y2="25" gradientUnits="userSpaceOnUse">
<stop stop-color="#6C6E73"/>
<stop offset="1" stop-color="#57585A"/>
</linearGradient>
<linearGradient id="paint1_linear_107_266" x1="12.5" y1="2.59633e-07" x2="21.2118" y2="44.3815" gradientUnits="userSpaceOnUse">
<stop stop-color="#F9F1E8"/>
<stop offset="1" stop-color="#F9F1E8" stop-opacity="0"/>
</linearGradient>
</defs>
</svg>
