<svg width="22" height="21" viewBox="0 0 22 21" fill="none" xmlns="http://www.w3.org/2000/svg">
<path d="M19.712 16.0829H17.6202C16.8291 16.0829 16.5908 15.4713 15.1727 14.1168C13.9333 12.9767 13.4099 12.8349 13.0964 12.8349C12.6628 12.8349 12.5446 12.9487 12.5446 13.5183V15.3138C12.5446 15.7994 12.3796 16.0838 11.0504 16.0838C9.76093 16.0011 8.51048 15.6272 7.40205 14.9928C6.29363 14.3584 5.35895 13.4818 4.675 12.435C3.0516 10.5053 1.92171 8.24101 1.375 5.82178C1.375 5.52253 1.49417 5.25128 2.09183 5.25128H4.18183C4.719 5.25128 4.91242 5.47965 5.12325 6.00728C6.138 8.85803 7.86958 11.3378 8.57267 11.3378C8.84217 11.3378 8.9595 11.224 8.9595 10.5827V7.64615C8.87058 6.30653 8.12533 6.19365 8.12533 5.7089C8.13476 5.58101 8.19605 5.46167 8.29618 5.37622C8.39631 5.29077 8.52739 5.24595 8.66158 5.25128H11.9469C12.3961 5.25128 12.5446 5.46478 12.5446 5.97753V9.94128C12.5446 10.3692 12.7371 10.5109 12.8728 10.5109C13.1423 10.5109 13.3494 10.3692 13.8435 9.8984C14.9021 8.66523 15.7674 7.2917 16.412 5.8209C16.4777 5.64412 16.6023 5.49277 16.7667 5.39004C16.9311 5.28731 17.1262 5.23888 17.3222 5.25215H19.4132C20.0402 5.25215 20.1731 5.5514 20.0402 5.9784C19.2795 7.60441 18.3385 9.14797 17.2333 10.5827C17.0078 10.9108 16.918 11.0814 17.2333 11.4664C17.4405 11.7657 18.1738 12.3502 18.6661 12.9058C19.3829 13.5883 19.9778 14.3775 20.4279 15.242C20.6076 15.7985 20.3088 16.0829 19.712 16.0829Z" fill="#050825"/>
</svg>
