<svg width="161" height="71" viewBox="0 0 161 71" fill="none" xmlns="http://www.w3.org/2000/svg">
<rect x="0.5" y="0.5" width="70" height="70" stroke="#363636" stroke-opacity="0.2"/>
<rect x="90.5" y="0.5" width="70" height="70" stroke="#363636" stroke-opacity="0.2"/>
<path d="M139.53 36.5303C139.823 36.2374 139.823 35.7626 139.53 35.4697L134.757 30.6967C134.464 30.4038 133.99 30.4038 133.697 30.6967C133.404 30.9896 133.404 31.4645 133.697 31.7574L137.939 36L133.697 40.2426C133.404 40.5355 133.404 41.0104 133.697 41.3033C133.99 41.5962 134.464 41.5962 134.757 41.3033L139.53 36.5303ZM112 36L112 36.75L139 36.75L139 36L139 35.25L112 35.25L112 36Z" fill="#363636"/>
<path d="M21.4697 36.5303C21.1768 36.2374 21.1768 35.7626 21.4697 35.4697L26.2426 30.6967C26.5355 30.4038 27.0104 30.4038 27.3033 30.6967C27.5962 30.9896 27.5962 31.4645 27.3033 31.7574L23.0607 36L27.3033 40.2426C27.5962 40.5355 27.5962 41.0104 27.3033 41.3033C27.0104 41.5962 26.5355 41.5962 26.2426 41.3033L21.4697 36.5303ZM49 36L49 36.75L22 36.75L22 36L22 35.25L49 35.25L49 36Z" fill="#363636"/>
</svg>
