<svg viewBox="40.2 0 27.95 27.95" xmlns="http://www.w3.org/2000/svg" fill="none">
<path d="M60.3987 2.35344L40.541 14.7947L53.2153 15.5092L60.3987 2.35344Z" fill="#EE1B2C"/>
<path d="M53.2153 15.5092L60.3988 2.35344V26.2692L53.2153 15.5092Z" fill="#A70A13"/>
<mask id="bit-fav-a" style="mask-type:luminance" maskUnits="userSpaceOnUse" x="40" y="15" width="20" height="13">
<path d="M53.2532 27.8923C55.3613 27.9964 57.4644 27.6034 59.3988 26.7441L57.55 24.1824C56.2236 24.6708 54.813 24.8877 53.3996 24.8179C51.7566 24.7368 50.1541 24.2704 48.7171 23.4552C47.2801 22.6401 46.0474 21.498 45.1152 20.1182C44.3036 18.917 43.7388 17.5638 43.4519 16.14L40.3499 15.9376C40.6498 18.0645 41.4282 20.0922 42.6242 21.8626C43.8204 23.633 45.4018 25.0982 47.2455 26.144C49.0891 27.19 51.1451 27.7883 53.2532 27.8923Z" fill="white"/>
</mask>
<g mask="url(#bit-fav-a)">
<path d="M59.3988 26.7441L60.6537 29.6718L64.2518 28.0733L61.9272 24.8525L59.3988 26.7441ZM40.3499 15.9376L40.5505 12.7497L36.6951 12.4983L37.2441 16.3916L40.3499 15.9376ZM57.5501 24.1824L60.0784 22.2909L58.6893 20.3662L56.483 21.1785L57.5501 24.1824ZM43.452 16.14L46.5256 15.498L46.044 13.1081L43.6526 12.9521L43.452 16.14ZM58.144 23.8163C56.6524 24.4789 55.0307 24.7819 53.4052 24.7017L53.1012 31.083C55.6919 31.2108 58.2765 30.7279 60.6537 29.6718L58.144 23.8163ZM53.4052 24.7017C51.7796 24.6214 50.1944 24.1601 48.7728 23.3536L45.7183 28.9345C47.984 30.2198 50.5106 30.9551 53.1012 31.083L53.4052 24.7017ZM48.7728 23.3536C47.3511 22.5471 46.1316 21.4174 45.2093 20.0523L40.0392 23.6729C41.5091 25.8486 43.4526 27.6492 45.7183 28.9345L48.7728 23.3536ZM45.2093 20.0523C44.2871 18.6871 43.6869 17.1236 43.4556 15.4836L37.2441 16.3916C37.6127 19.0054 38.5693 21.4973 40.0392 23.6729L45.2093 20.0523ZM42.5301 21.9285C43.7362 23.7136 45.3309 25.1911 47.1899 26.2457L50.2443 20.6648C49.2294 20.0891 48.3588 19.2824 47.7003 18.3079L42.5301 21.9285ZM47.1899 26.2457C49.0489 27.3003 51.122 27.9036 53.2477 28.0086L53.5516 21.6273C52.3911 21.57 51.2592 21.2406 50.2443 20.6648L47.1899 26.2457ZM53.2477 28.0086C55.0761 28.0988 56.9011 27.8182 58.617 27.1864L56.483 21.1785C55.5462 21.5234 54.5499 21.6766 53.5516 21.6273L53.2477 28.0086ZM61.9272 24.8525L60.0784 22.2909L55.0217 26.0739L56.8705 28.6355L61.9272 24.8525ZM40.3784 16.7819C40.7495 18.6239 41.4802 20.3745 42.5301 21.9285L47.7003 18.3079C47.127 17.4594 46.7282 16.5037 46.5256 15.498L40.3784 16.7819ZM40.1493 19.1255L43.2514 19.3278L43.6526 12.9521L40.1493 19.1255Z" fill="#EE1B2C"/>
</g>
<mask id="bit-fav-b" style="mask-type:luminance" maskUnits="userSpaceOnUse" x="40" y="0" width="21" height="14">
<path d="M42.1129 6.86217C40.9462 8.8749 40.2948 11.1537 40.2183 13.4895L43.4692 11.6847C43.7088 10.5414 44.1288 9.44058 44.7166 8.42656C45.626 6.8578 46.9078 5.54669 48.4444 4.61354C49.981 3.68039 51.7231 3.1551 53.511 3.08588C54.5986 3.04377 55.6819 3.17125 56.7243 3.46027L60.0241 1.46175C57.969 0.420426 55.69 -0.0787334 53.3961 0.0100816C51.1023 0.0988968 48.867 0.772844 46.8956 1.97007C44.9241 3.16729 43.2796 4.84946 42.1129 6.86217Z" fill="white"/>
</mask>
<g mask="url(#bit-fav-b)">
<path d="M40.2182 13.4895L37.0823 13.3831L36.8994 18.9704L41.7203 16.294L40.2182 13.4895ZM60.024 1.46175L61.6281 4.20708L66.5731 1.21213L61.422 -1.39801L60.024 1.46175ZM43.4691 11.6847L44.9712 14.4892L46.2368 13.7866L46.5376 12.3513L43.4691 11.6847ZM56.7242 3.46027L55.8997 6.54238L57.1842 6.89855L58.3283 6.2056L56.7242 3.46027ZM43.354 13.5959C43.413 11.7948 43.9153 10.0377 44.815 8.48568L39.4107 5.23866C37.9769 7.7121 37.1763 10.5126 37.0823 13.3831L43.354 13.5959ZM44.815 8.48568C45.7145 6.93374 46.9826 5.63663 48.5028 4.71346L45.2882 -0.77333C42.8654 0.697962 40.8444 2.76519 39.4107 5.23866L44.815 8.48568ZM48.5028 4.71346C50.0229 3.7903 51.7465 3.27063 53.5152 3.20215L53.2767 -3.18199C50.4578 -3.07284 47.7109 -2.24462 45.2882 -0.77333L48.5028 4.71346ZM53.5152 3.20215C55.284 3.13367 57.0414 3.51856 58.626 4.32151L61.422 -1.39801C58.8965 -2.67771 56.0957 -3.29114 53.2767 -3.18199L53.5152 3.20215ZM53.3917 -0.10619C51.0786 -0.0166347 48.8248 0.66293 46.8369 1.87014L50.0516 7.35695C51.1368 6.69785 52.3674 6.32684 53.6301 6.27795L53.3917 -0.10619ZM46.8369 1.87014C44.849 3.07735 43.1908 4.77354 42.0144 6.80304L47.4187 10.0501C48.0609 8.94205 48.9662 8.01602 50.0516 7.35695L46.8369 1.87014ZM42.0144 6.80304C41.2539 8.11495 40.7105 9.53896 40.4005 11.0181L46.5376 12.3513C46.7068 11.5437 47.0035 10.7663 47.4187 10.0501L42.0144 6.80304ZM41.7203 16.294L44.9712 14.4892L41.967 8.88016L38.716 10.685L41.7203 16.294ZM57.5487 0.378156C56.2002 0.00425196 54.7987 -0.160669 53.3917 -0.10619L53.6301 6.27795C54.3983 6.24821 55.1635 6.33823 55.8997 6.54238L57.5487 0.378156ZM58.4198 -1.28358L55.1201 0.714938L58.3283 6.2056L61.6281 4.20708L58.4198 -1.28358Z" fill="#57585A"/>
</g>
<mask id="bit-fav-c" style="mask-type:luminance" maskUnits="userSpaceOnUse" x="61" y="2" width="7" height="24">
<path d="M66.141 7.46065C65.0746 5.39103 63.31 3.52387 61.3999 2.22769V6.09505C62.2284 6.90453 62.9264 7.84765 63.4636 8.89041C64.2947 10.5036 64.7145 12.3033 64.6845 14.1247C64.6545 15.946 64.1758 17.7305 63.2921 19.3143C62.7546 20.2778 62.0776 21.1483 61.2874 21.8983L61.2185 25.8067C63.1702 24.5764 64.7871 22.8667 65.9209 20.8346C67.0547 18.8025 67.669 16.513 67.7074 14.1762C67.7458 11.8395 67.2072 9.53031 66.141 7.46065Z" fill="white"/>
</mask>
<g mask="url(#bit-fav-c)">
<path d="M61.4 2.22769L63.1401 -0.430371L58.2623 -3.74035L58.2624 2.22769L61.4 2.22769ZM61.4 6.09505L58.2624 6.09506V7.45692L59.2275 8.39984L61.4 6.09505ZM61.2874 21.8983L59.148 19.5617L58.1742 20.4859L58.1503 21.8411L61.2874 21.8983ZM61.2185 25.8067L58.0815 25.7494L57.9783 31.6065L62.8703 28.5226L61.2185 25.8067ZM68.9193 5.97688C67.5749 3.36698 65.4217 1.1179 63.1401 -0.430371L59.6598 4.88575C61.1984 5.92984 62.5745 7.4151 63.3624 8.94448L68.9193 5.97688ZM58.2624 2.22769V6.09506L64.5376 6.09504V2.22768L58.2624 2.22769ZM59.2275 8.39984C59.8127 8.97162 60.3056 9.63775 60.6851 10.3742L66.2422 7.40665C65.5471 6.05762 64.6442 4.83747 63.5724 3.79026L59.2275 8.39984ZM60.6851 10.3742C61.2721 11.5136 61.5686 12.7848 61.5474 14.0712L67.8217 14.1782C67.8604 11.8219 67.3173 9.49355 66.2422 7.40665L60.6851 10.3742ZM61.5474 14.0712C61.5262 15.3575 61.1881 16.6179 60.5639 17.7366L66.0203 20.892C67.1635 18.843 67.7829 16.5344 67.8217 14.1782L61.5474 14.0712ZM60.5639 17.7366C60.1843 18.4172 59.7062 19.032 59.148 19.5617L63.4268 24.2349C64.4492 23.2647 65.3249 22.1385 66.0203 20.892L60.5639 17.7366ZM58.1503 21.8411L58.0815 25.7494L64.3557 25.864L64.4245 21.9556L58.1503 21.8411ZM62.8703 28.5226C65.2688 27.0107 67.2559 24.9096 68.6494 22.4123L63.1927 19.2569C62.3185 20.8239 61.0717 22.1421 59.5668 23.0908L62.8703 28.5226ZM68.6494 22.4123C70.0427 19.915 70.7975 17.1014 70.8444 14.2297L64.5703 14.1227C64.5406 15.9245 64.067 17.6899 63.1927 19.2569L68.6494 22.4123ZM70.8444 14.2297C70.892 11.3581 70.2297 8.5203 68.9193 5.97688L63.3624 8.94448C64.1846 10.5403 64.5999 12.3209 64.5703 14.1227L70.8444 14.2297Z" fill="#EE1B2C"/>
</g>
</svg>
