<svg width="29" height="29" viewBox="0 0 29 29" fill="none" xmlns="http://www.w3.org/2000/svg">
<g id="emojione:flag-for-belarus" clip-path="url(#clip0_0_35)">
<g id="Group">
<path id="Vector" d="M1.44998 12.0531V12.5063H1.72185V12.9594H1.99373V12.5063H2.2656V12.0531H2.53748V11.6H2.80935V11.1469H3.08123V10.6938H3.3531V10.2406H2.9906V9.7875H2.76404V9.33438H1.94841V9.7875H2.49216V10.2406H2.22029V10.6938H1.94841V11.1469H1.67654V10.6938H1.44998C1.35935 11.0563 1.26873 11.4641 1.1781 11.8266V12.0078H1.44998V12.0531ZM4.57654 5.21094L4.4406 5.34688H4.57654V5.21094Z" fill="white"/>
<path id="Vector_2" d="M6.70625 3.5793H6.43437V4.03242H6.1625V4.48555H5.89062V4.93867H5.61875V5.3918H5.34687V4.93867H5.075V4.71211L4.80312 4.98398V5.3918H5.075V5.84492H5.34687V6.29805H5.075V6.75117H4.80312V7.2043H4.53125V6.75117H4.30469V6.29805H4.07812V5.84492C3.9875 5.93555 3.89687 6.07148 3.80625 6.16211V6.29805H3.71562C3.625 6.34336 3.57969 6.38867 3.53437 6.4793V6.70586H3.35312C3.30781 6.75117 3.30781 6.79648 3.2625 6.8418V7.11367H3.08125C2.99062 7.24961 2.9 7.43086 2.80937 7.5668H3.03594V8.01992H3.30781V8.47305H3.57969V8.92617H3.85156V9.3793H4.07812V8.92617H4.35V8.47305H4.62187V8.01992H4.89375V7.5668H5.16562V7.11367H5.4375V6.66055H5.70937V7.11367H5.89062V7.5668H6.1625V8.01992H6.43437V8.47305H6.70625V8.92617H6.97812V8.01992H6.70625V7.5668H6.97812V6.25273H6.70625V6.70586H6.43437V7.15898H6.1625V6.70586H5.89062V6.25273H5.61875V5.79961H5.89062V5.34648H6.1625V4.89336H6.43437V5.34648H6.70625V5.79961H6.97812V4.44023H6.70625V3.98711H6.97812V3.2168C6.8875 3.26211 6.79687 3.35273 6.70625 3.39805V3.5793ZM4.07812 8.01992H3.80625V7.11367H4.07812V8.01992ZM1.17812 16.0402V15.5871H1.45V15.134H1.72187V14.6809H1.99375V14.2277H1.67656V13.7746H1.45V13.3215H1.17812V12.8684H0.996875C0.951563 13.4574 0.90625 13.9559 0.90625 14.4996C0.90625 15.0434 0.951563 15.5418 0.996875 16.0402H1.17812ZM6.70625 13.3668H6.43437V13.8199H6.1625V14.273H5.89062V14.7262H6.1625V15.1793H6.43437V15.6324H6.70625V16.0402H6.93281V12.959H6.70625V13.3668Z" fill="white"/>
<path id="Vector_3" d="M4.30469 5.48242C4.21406 5.57305 4.12344 5.70898 4.03281 5.79961H4.30469V5.48242ZM4.44062 23.6527L4.57656 23.7887V23.6527H4.44062ZM4.07812 23.1996C4.16875 23.2902 4.25937 23.4262 4.35 23.5168V23.1996H4.07812Z" fill="white"/>
<path id="Vector_4" d="M6.70623 24.9664V24.5133H6.9781V23.1539H6.70623V23.607H6.43435V24.0602H6.16248V23.607H5.8906V23.1539H5.61873V22.7008H5.8906V22.2477H6.16248V21.7945H6.43435V22.2477H6.70623V22.7008H6.9781V21.3414H6.70623V20.8883H6.9781V19.982H6.70623V20.4352H6.43435V20.8883H6.16248V21.3414H5.8906V21.7945H5.61873V22.2477H5.34685V21.7945H5.07498V21.3414H4.8031V20.8883H4.53123V20.4352H4.30466V19.982H4.0781V19.5289H3.80623V19.982H3.53435V20.4352H3.26248V20.8883H2.9906V21.3414H2.80935C2.89998 21.4773 2.9906 21.6586 3.08123 21.7945H3.26248V22.0664C3.30779 22.1117 3.30779 22.157 3.3531 22.2023H3.53435V22.4289C3.57966 22.6102 3.62498 22.6555 3.7156 22.7461H3.80623V22.882C3.89685 22.9727 3.98748 23.1086 4.0781 23.1992V22.7461H4.34998V22.293H4.62185V21.8398H4.89373V22.293H5.1656V22.7461H5.43748V23.1992H5.1656V23.6523H4.89373V24.0602L5.1656 24.332V24.1055H5.43748V23.6523H5.70935V24.1055H5.8906V24.5586H6.16248V25.0117H6.43435V25.4648H6.70623V25.6461C6.79685 25.6914 6.88748 25.782 6.9781 25.8273V25.0117L6.70623 24.9664ZM4.0781 21.8398H3.80623V20.9336H4.0781V21.8398ZM6.70623 16.9461H6.43435V16.493H6.16248V16.0398H5.8906V16.493H5.61873V16.9461H5.39216V17.3992H5.12029V17.8523H4.84841V18.3055H4.57654V18.7133H4.84841V19.1664H5.12029V19.6195H5.8906V19.1664H5.39216V18.7133H5.61873V18.3055H5.8906V17.8523H6.16248V18.3055H6.43435V18.7133H6.70623V19.1664H6.93279V18.3055H6.70623V17.8523H6.93279V17.3992H6.70623V16.9461ZM6.70623 10.2852H6.43435V10.693H6.16248V11.1461H5.8906V10.693H5.61873V10.2852H5.39216V9.83203H5.8906V9.37891H5.12029V9.83203H4.84841V10.2852H4.57654V10.693H4.84841V11.1461H5.12029V11.5992H5.39216V12.0523H5.61873V12.5055H5.8906V12.9586H6.16248V12.5055H6.43435V12.0523H6.70623V11.5992H6.93279V11.1461H6.70623V10.693H6.93279V9.83203H6.70623V10.2852ZM1.67654 17.8523H1.94841V18.3055H2.22029V18.7586H2.49216V19.2117H1.94841V19.6648H2.71873V19.2117H2.9906V18.7586H3.26248V18.3055H2.9906V17.8523H2.76404V17.3992H2.49216V16.9461H2.22029V16.493H1.94841V16.0398H1.67654V16.493H1.44998V16.9461H1.1781V17.1273C1.26873 17.5352 1.35935 17.8977 1.44998 18.2602H1.67654V17.8523ZM4.57654 12.0523H4.30466V11.5992H4.0781V11.1461H3.80623V11.5992H3.53435V12.0523H3.26248V12.5055H2.9906V12.9586H2.76404V13.4117H2.49216V15.6773H2.76404V16.1305H3.03591V16.5836H3.30779V17.0367H3.57966V17.4898H3.85154V17.943H4.0781V17.4898H4.34998V17.0367H4.62185V16.5836H4.89373V16.1305H5.1656V15.6773H5.43748V13.4117H5.1656V12.9586H4.89373V12.5055H4.62185L4.57654 12.0523ZM2.9906 14.4539V14.7258H2.76404V14.2727H3.03591V14.4539H2.9906ZM4.84841 14.5445V14.2727H5.12029V14.7258H4.84841V14.5445ZM3.80623 12.0523H4.0781V12.5055H3.80623V12.0523ZM4.0781 16.9461H3.80623V16.493H4.0781V16.9461ZM4.57654 13.8195H4.30466V14.2727H4.0781V14.7258H4.34998V15.1789H4.62185V16.0852H4.30466V15.632H4.0781V15.1789H3.80623V15.632H3.53435V16.0852H3.26248V15.1789H3.53435V14.7258H3.80623V14.2727H3.53435V13.8195H3.26248V12.9133H3.53435V13.3664H3.80623V13.8195H4.0781V13.3664H4.34998V12.9133H4.62185L4.57654 13.8195Z" fill="white"/>
</g>
<g id="Group_2">
<path id="Vector_5" d="M3.2625 6.84219C3.21719 6.93281 3.12656 7.02344 3.08125 7.11406H3.2625V6.84219ZM3.53438 6.70625V6.47969C3.48906 6.57031 3.44375 6.61563 3.35312 6.70625H3.53438ZM3.80625 6.25313V6.11719C3.76094 6.1625 3.76094 6.20781 3.71562 6.25313H3.80625ZM2.76406 14.4547V14.7266H2.99062V14.2734H2.76406V14.4547ZM6.70625 7.6125H6.97812V8.06562H6.70625V7.6125ZM4.30469 6.25313V6.70625H4.57656V7.15938H4.84844V6.70625H5.12031V6.25313H5.39219V5.8H5.12031V5.34688H4.84844V4.93906L4.57656 5.21094V5.34688H4.44063L4.30469 5.48281V5.8H4.07812V6.25313H4.30469ZM6.70625 4.03281H6.97812V4.48594H6.70625V4.03281ZM6.70625 5.34688H6.43438V4.93906H6.1625V5.34688H5.89062V5.8H5.61875V6.25313H5.89062V6.70625H6.1625V7.15938H6.43438V6.70625H6.70625V6.25313H6.93281V5.8H6.70625V5.34688ZM5.39219 4.93906V5.39219H5.66406V4.93906H5.89062V4.48594H6.1625V4.03281H6.43438V3.57969H6.70625V3.39844C6.20781 3.76094 5.70937 4.12344 5.30156 4.53125C5.25625 4.57656 5.21094 4.62188 5.12031 4.66719V4.89375H5.39219V4.93906ZM3.89688 7.15938H3.80625V8.02031H4.07812V7.15938H3.94219H3.89688ZM4.30469 13.3672H4.07812V13.8203H3.80625V13.3672H3.53438V12.9594H3.2625V13.8203H3.53438V14.2734H3.80625V14.7266H3.53438V15.1797H3.2625V16.0406H3.53438V15.6328H3.80625V15.1797H4.07812V15.6328H4.30469V16.0406H4.57656V15.1797H4.30469V14.7266H4.07812V14.2734H4.30469V13.8203H4.57656V12.9594H4.30469V13.3672ZM6.70625 10.6938H6.97812V11.1469H6.70625V10.6938Z" fill="#C8313E"/>
<path id="Vector_6" d="M6.70625 8.47266H6.43438V8.01953H6.1625V7.56641H5.89063V7.11328H5.61875V6.66016H5.34688V7.11328H5.075V7.56641H4.80313V8.01953H4.53125V8.47266H4.30469V8.92578H4.07813V9.37891H3.80625V8.92578H3.53438V8.47266H3.2625V8.01953H2.99062V7.56641H2.80937C2.5375 8.01953 2.26563 8.51797 2.03906 9.01641C1.8125 9.56016 1.63125 10.1039 1.45 10.6477H1.67656V11.1008H1.94844V10.6477H2.22031V10.1945H2.49219V9.74141H1.94844V9.28828H2.71875V9.74141H2.99062V10.1945H3.2625V10.6477H2.99062V11.1008H2.76406V11.5539H2.49219V12.007H2.22031V12.4602H1.94844V12.9133H1.67656V12.4602H1.45V12.007H1.17812V11.8258C1.0875 12.1883 1.04219 12.5508 0.996875 12.9133H1.17812V13.3664H1.45V13.8195H1.72188V14.2727H1.99375V14.7258H1.67656V15.1789H1.45V15.632H1.17812V16.0852H0.996875C1.04219 16.4477 1.0875 16.8102 1.17812 17.1727V16.9914H1.45V16.5383H1.72188V16.0852H1.99375V16.5383H2.26563V16.9914H2.5375V17.4445H2.80937V17.8977H3.08125V18.3508H3.35312V18.8039H2.99062V19.257H2.76406V19.7102H1.94844V19.257H2.49219V18.8039H2.22031V18.3508H1.94844V17.8977H1.67656V18.3508H1.45C1.63125 18.8492 1.8125 19.393 2.03906 19.9367C2.26563 20.4352 2.5375 20.9336 2.80937 21.3867H3.03594V20.9336H3.30781V20.4805H3.57969V20.0273H3.85156V19.5742H4.07813V20.0273H4.35V20.4805H4.62188V20.9336H4.89375V21.3867H5.16562V21.8398H5.4375V22.293H5.70938V21.8398H5.89063V21.3867H6.1625V20.9336H6.43438V20.4805H6.70625V20.0273H6.97812V19.1211H6.70625V18.668H6.43438V18.2148H6.1625V17.7617H5.89063V18.2148H5.61875V18.668H5.34688V19.1211H5.89063V19.5742H5.12031V19.1211H4.84844V18.668H4.57656V18.2148H4.84844V17.7617H5.12031V17.3086H5.39219V16.8555H5.66406V16.4023H5.89063V15.9492H6.1625V16.4023H6.43438V16.8555H6.70625V17.3086H6.97812V15.9492H6.70625V15.4961H6.43438V15.043H6.1625V14.5898H5.89063V14.1367H6.1625V13.6836H6.43438V13.2305H6.70625V12.7773H6.97812V11.418H6.70625V11.8711H6.43438V12.3242H6.1625V12.7773H5.89063V12.3242H5.61875V11.8711H5.34688V11.418H5.075V10.9648H4.80313V10.5117H4.53125V10.0586H4.80313V9.60547H5.075V9.15234H5.89063V9.60547H5.34688V10.0586H5.61875V10.5117H5.89063V10.9648H6.1625V10.5117H6.43438V10.0586H6.70625V9.60547H6.97812V8.69922H6.70625V8.47266ZM4.84844 12.5055V12.9586H5.12031V13.4117H5.39219V15.6773H5.12031V16.1305H4.84844V16.5836H4.57656V17.0367H4.30469V17.4898H4.07813V17.943H3.80625V17.4898H3.53438V17.0367H3.2625V16.5836H2.99062V16.1305H2.76406V15.6773H2.49219V13.4117H2.76406V12.9586H3.03594V12.5055H3.30781V12.0523H3.57969V11.5992H3.85156V11.1461H4.07813V11.5992H4.35V12.0523H4.62188V12.5055H4.84844Z" fill="#C8313E"/>
<path id="Vector_7" d="M3.94216 12.5059H4.0781V12.0527H3.80623V12.5059H3.89685H3.94216ZM3.26248 21.8402H3.08123C3.12654 21.9309 3.21716 22.0215 3.26248 22.1121V21.8402ZM3.53435 22.2934H3.3531C3.39841 22.384 3.44373 22.4293 3.53435 22.5199V22.2934ZM3.80623 22.7465H3.7156C3.76091 22.7918 3.76091 22.8371 3.80623 22.8824V22.7465ZM6.70623 20.9793H6.9781V21.4324H6.70623V20.9793ZM6.70623 22.2934H6.43435V21.8402H6.16248V22.2934H5.8906V22.7465H5.61873V23.1996H5.8906V23.6527H6.16248V24.0605H6.43435V23.6527H6.70623V23.1996H6.93279V22.7465H6.70623V22.2934ZM4.30466 23.1996V23.5168L4.4406 23.6527H4.57654V23.7887L4.84841 24.0605V23.6527H5.12029V23.1996H5.39216V22.7465H5.12029V22.2934H4.84841V21.8402H4.57654V22.2934H4.30466V22.7465H4.0781V23.1996H4.30466ZM6.70623 24.5137H6.9781V24.9668H6.70623V24.5137ZM5.25623 24.4684C5.70935 24.8762 6.16248 25.284 6.66091 25.6012V25.4199H6.38904V24.9668H6.11716V24.5137H5.8906V24.0605H5.61873V23.6074H5.34685V24.0605H5.07498V24.2871L5.25623 24.4684ZM3.89685 20.9793H3.80623V21.8402H4.0781V20.9793H3.94216H3.89685ZM6.70623 17.8527H6.9781V18.3059H6.70623V17.8527ZM5.12029 14.5449V14.273H4.84841V14.7262H5.12029V14.5449ZM3.89685 16.4934H3.80623V16.9465H4.0781V16.4934H3.94216H3.89685Z" fill="#C8313E"/>
</g>
<path id="Vector_8" d="M6.93281 19.9375V25.7828C9.10781 27.2328 11.6906 28.0938 14.5 28.0938C18.0797 28.0938 21.2969 26.7344 23.7438 24.4688C25.1031 23.2 26.2359 21.6594 26.9609 19.9375H6.93281Z" fill="#83BF4F"/>
<path id="Vector_9" d="M26.9609 19.9375C27.6859 18.2609 28.0938 16.4484 28.0938 14.5C28.0938 12.5516 27.6859 10.7391 26.9609 9.0625C26.1906 7.34063 25.1031 5.8 23.7438 4.53125C21.2969 2.26562 18.0797 0.90625 14.5 0.90625C11.6906 0.90625 9.10781 1.76719 6.93281 3.21719V19.9375H26.9609Z" fill="#C94747"/>
</g>
<defs>
<clipPath id="clip0_0_35">
<rect width="29" height="29" fill="white"/>
</clipPath>
</defs>
</svg>
