<svg width="29" height="29" viewBox="0 0 29 29" fill="none" xmlns="http://www.w3.org/2000/svg">
<g clip-path="url(#clip0_107_1150)">
<path d="M14.4549 0.90625C8.56426 0.90625 3.53457 4.7125 1.67676 9.96875H27.3236C25.4205 4.7125 20.3908 0.90625 14.4549 0.90625Z" fill="#F9F9F9"/>
<path d="M14.4549 28.0938C20.3908 28.0938 25.4205 24.2875 27.2783 19.0312H1.67676C3.53457 24.3328 8.56426 28.0938 14.4549 28.0938Z" fill="#ED4C5C"/>
<path d="M1.67656 9.96875C1.17813 11.3734 0.90625 12.9141 0.90625 14.5C0.90625 16.0859 1.17813 17.6266 1.67656 19.0312H27.3234C27.8219 17.6266 28.0938 16.0859 28.0938 14.5C28.0938 12.9141 27.8219 11.3734 27.3234 9.96875H1.67656Z" fill="#428BC1"/>
</g>
<defs>
<clipPath id="clip0_107_1150">
<rect width="29" height="29" fill="white"/>
</clipPath>
</defs>
</svg>
