<svg width="68" height="45" viewBox="0 0 68 45" fill="none" xmlns="http://www.w3.org/2000/svg">
<g id="Group 2087331356">
<g id="svgexport-1 2" clip-path="url(#clip0_64_202)">
<g id="Clip path group">
<mask id="mask0_64_202" style="mask-type:luminance" maskUnits="userSpaceOnUse" x="0" y="0" width="68" height="45">
<g id="clip0_6946_6795">
<path id="Vector" d="M68 0H0V45H68V0Z" fill="white"/>
</g>
</mask>
<g mask="url(#mask0_64_202)">
<g id="Group">
<path id="Vector_2" d="M45.8893 32.2096C45.2798 32.0321 44.6225 31.9434 43.9174 31.9434C43.009 31.9434 42.2202 32.0099 41.551 32.143C41.3261 32.184 41.1073 32.2294 40.8945 32.2791V34.2131C41.2647 34.0926 41.6508 33.9958 42.053 33.9229C42.6027 33.823 43.1106 33.7731 43.5768 33.7731C44.2819 33.7731 44.2944 33.8508 44.6051 34.006C44.9159 34.1502 45.041 34.4711 45.041 34.7595C45.041 35.1254 44.8705 35.467 44.3805 35.6001C43.9024 35.7332 43.6724 35.7711 42.788 35.7711H41.802V37.4844H42.8418C43.4752 37.4844 43.6648 37.5232 44.0711 37.6008C44.4775 37.6784 44.7822 37.8004 44.9854 37.9668C45.1886 38.122 45.2887 38.3321 45.2887 38.5423C45.2887 38.7973 45.1706 39.0258 44.9316 39.1811C44.7045 39.3363 44.4655 39.4845 44.0711 39.5511C43.6887 39.6176 43.511 39.6136 43.021 39.6136C42.3649 39.6136 41.7434 39.4636 41.1562 39.3218L41.1207 39.3133C40.952 39.2717 40.7906 39.1447 40.6367 39.1004V41.1089C41.0192 41.1865 41.4905 41.2743 41.9447 41.3584C42.4401 41.4424 42.8529 41.5265 43.3974 41.5265C44.509 41.5265 45.4173 41.399 46.1224 41.1439C46.8395 40.8778 47.3653 40.534 47.7 40.1126C48.0465 39.6801 48.2199 39.0462 48.2199 38.5472C48.2199 38.0925 48.1183 37.7321 47.9151 37.466C47.7239 37.1887 47.4609 36.9725 47.1263 36.8172C46.7917 36.6508 46.4152 36.5233 45.9969 36.4346V36.3515C46.5945 36.2073 47.0665 35.9744 47.4131 35.6528C47.7717 35.3312 47.9509 34.8988 47.9509 34.3554C47.9509 33.8009 47.7597 33.3462 47.3773 32.9913C47.0068 32.6365 46.5108 32.3758 45.8893 32.2096Z" fill="#57585A"/>
<path id="Vector_3" d="M15.5549 31.918C16.5778 31.918 17.9441 32.1379 18.5778 32.953C19.3623 33.8356 19.735 35.133 19.735 36.7065C19.735 37.7593 19.5386 38.4273 19.2384 39.1518C18.7843 40.1403 18.2427 40.6234 17.7202 40.9857C17.1976 41.3479 16.1776 41.529 15.4882 41.529C15.0545 41.529 14.6765 41.4724 14.354 41.3592C14.0426 41.246 13.7758 41.0989 13.5535 40.9177C13.331 40.7366 13.0354 40.4702 12.8686 40.2664C12.9131 40.4815 12.8464 40.6171 12.8686 40.8548C12.8909 41.0813 12.8686 41.2168 12.8686 41.4433V45.5186H10.0532V32.0878L12.8807 32.1048L12.4216 33.2934H12.9697C13.1365 33.0444 13.3366 32.818 13.5701 32.6142C13.8036 32.3991 14.0816 32.2293 14.4041 32.1048C14.7376 31.9803 15.1213 31.918 15.5549 31.918ZM14.6866 34.0458C14.253 34.0458 13.9621 34.2009 13.7063 34.382C13.4174 34.6349 13.2522 34.8023 13.0871 35.1386C12.9759 35.5009 12.8797 35.8632 12.8686 36.4178V36.6896C12.8686 37.2895 12.9242 37.7989 13.0354 38.2178C13.1466 38.6253 13.3357 38.9367 13.6025 39.1518C13.8693 39.3669 14.2307 39.4744 14.6866 39.4744C15.0647 39.4744 15.691 39.2626 15.9357 39.0475C16.1803 38.8324 16.4739 38.5837 16.5963 38.1649C16.7185 37.746 16.7673 37.2726 16.7673 36.6725C16.7673 35.7669 16.6283 35.0877 16.3504 34.6349C16.1177 34.256 15.2759 34.0458 14.6866 34.0458Z" fill="#57585A"/>
<path id="Vector_4" d="M36.165 16.7285H28.7751V18.9343H31.1284V25.9334H33.8531V18.9343H36.165V16.7285Z" fill="white"/>
<path id="Vector_5" d="M21.6743 16.7695H19.2798V25.9744H21.6743L25.4311 19.9219V25.9744H27.8669V16.7695H25.3073L21.6743 22.4858V16.7695Z" fill="white"/>
<path id="Vector_6" d="M21.9218 12.3574H20.0227C20.3117 16.2243 26.5869 16.6866 27.2474 12.3574H25.3071C25.0594 14.6692 22.3346 14.5851 21.9218 12.3574Z" fill="white"/>
<path id="Vector_7" d="M13.7895 16.5078C15.0126 16.5078 15.9466 16.789 16.5915 17.3323C17.2475 17.8644 17.5756 18.6851 17.5756 19.7945V25.9755H15.1071V24.7189H15.0277C14.7719 25.0472 14.7277 25.256 14.4497 25.4711C14.1828 25.6861 13.9118 25.9019 13.5559 25.9924C13.2113 26.0943 12.7832 26.1453 12.2717 26.1453C11.738 26.1453 11.502 26.0434 11.0684 25.8396C10.6458 25.6245 10.3123 25.3019 10.0676 24.8717C9.82302 24.4302 9.70068 23.8755 9.70068 23.2076C9.70068 22.2227 10.0399 21.4982 10.7181 21.0341C11.3964 20.5586 12.1661 20.2142 13.5226 20.1689L15.1071 20.118V19.7945C15.1071 19.3077 14.9793 18.9511 14.7235 18.7247C14.4788 18.4983 14.1341 18.3851 13.6894 18.3851C13.2446 18.3851 12.811 18.4531 12.3885 18.5889C11.9659 18.7134 10.9755 19.3102 10.553 19.5027V17.4431C11.0422 17.1827 11.3534 17.0228 11.9214 16.8126C12.5219 16.6655 13.1445 16.5078 13.7895 16.5078ZM14.1397 21.7133C13.3392 21.736 12.9483 21.8831 12.637 22.1548C12.3256 22.4265 12.17 22.7831 12.17 23.2246C12.17 23.6095 12.2811 23.8868 12.5036 24.0567C12.7259 24.2151 12.8499 24.2944 13.2057 24.2944C13.7394 24.2944 14.1898 24.1359 14.5567 23.8189C14.9236 23.4906 15.1071 23.0321 15.1071 22.4435V21.6794L14.1397 21.7133Z" fill="white"/>
<path id="Vector_8" d="M24.4797 31.8594C25.8006 31.8594 26.8092 32.1414 27.5057 32.6864C28.2142 33.2201 28.5685 34.0434 28.5685 35.1562V41.3562H25.9027V40.0958H25.8168C25.5407 40.4251 25.4929 40.6346 25.1927 40.8503C24.9045 41.0661 24.6117 41.2824 24.2275 41.3733C23.8552 41.4755 23.3929 41.5266 22.8405 41.5266C22.2641 41.5266 22.0093 41.4244 21.5409 41.22C21.0846 41.0042 20.7244 40.6806 20.4602 40.2491C20.196 39.8062 20.064 39.2498 20.064 38.5799C20.064 37.592 20.4302 36.8652 21.1627 36.3997C21.8952 35.9227 22.7264 35.5772 24.1914 35.5318L25.9027 35.4807V35.1562C25.9027 34.6679 25.7645 34.3102 25.4883 34.0831C25.2241 33.8561 24.8519 33.7424 24.3716 33.7424C23.8912 33.7424 23.4229 33.8106 22.9666 33.9469C22.5103 34.0718 21.4407 34.6704 20.9843 34.8634V32.7976C21.5127 32.5364 21.8488 32.376 22.4623 32.1652C23.1107 32.0175 23.7832 31.8594 24.4797 31.8594ZM24.8579 37.081C23.9933 37.1037 23.5713 37.2513 23.235 37.5238C22.8987 37.7963 22.7307 38.154 22.7307 38.5969C22.7307 38.983 22.8507 39.2612 23.0909 39.4315C23.3311 39.5905 23.4649 39.67 23.8492 39.67C24.4256 39.67 24.912 39.511 25.3082 39.1931C25.7045 38.8637 25.9027 38.4038 25.9027 37.8134V37.0469L24.8579 37.081Z" fill="#57585A"/>
<path id="Vector_9" d="M60.3987 2.35352L40.541 14.7948L53.2153 15.5093L60.3987 2.35352Z" fill="white"/>
<path id="Vector_10" d="M53.2153 15.5093L60.3988 2.35352V26.2693L53.2153 15.5093Z" fill="#CACACA"/>
<g id="Mask group">
<mask id="mask1_64_202" style="mask-type:luminance" maskUnits="userSpaceOnUse" x="40" y="15" width="20" height="13">
<g id="Group_2">
<path id="Vector_11" d="M53.2532 27.8922C55.3613 27.9963 57.4644 27.6033 59.3988 26.7439L57.55 24.1823C56.2236 24.6707 54.813 24.8876 53.3996 24.8178C51.7566 24.7367 50.1541 24.2703 48.7171 23.4551C47.2801 22.6399 46.0474 21.4979 45.1152 20.1181C44.3036 18.9168 43.7388 17.5637 43.4519 16.1399L40.3499 15.9375C40.6498 18.0644 41.4282 20.0921 42.6242 21.8625C43.8204 23.6328 45.4018 25.098 47.2455 26.1439C49.0891 27.1899 51.1451 27.7881 53.2532 27.8922Z" fill="white"/>
</g>
</mask>
<g mask="url(#mask1_64_202)">
<path id="Vector_12" d="M59.3988 26.7438L60.6537 29.6716L64.2518 28.073L61.9272 24.8523L59.3988 26.7438ZM40.3499 15.9374L40.5505 12.7495L36.6951 12.498L37.2441 16.3914L40.3499 15.9374ZM57.5501 24.1822L60.0784 22.2907L58.6893 20.3659L56.483 21.1782L57.5501 24.1822ZM43.452 16.1397L46.5256 15.4977L46.044 13.1078L43.6526 12.9519L43.452 16.1397ZM58.144 23.816C56.6524 24.4786 55.0307 24.7817 53.4052 24.7014L53.1012 31.0827C55.6919 31.2106 58.2765 30.7277 60.6537 29.6716L58.144 23.816ZM53.4052 24.7014C51.7796 24.6212 50.1944 24.1598 48.7728 23.3534L45.7183 28.9343C47.984 30.2195 50.5106 30.9548 53.1012 31.0827L53.4052 24.7014ZM48.7728 23.3534C47.3511 22.5469 46.1316 21.4171 45.2093 20.052L40.0392 23.6727C41.5091 25.8483 43.4526 27.6489 45.7183 28.9343L48.7728 23.3534ZM45.2093 20.052C44.2871 18.6869 43.6869 17.1234 43.4556 15.4833L37.2441 16.3914C37.6127 19.0052 38.5693 21.497 40.0392 23.6727L45.2093 20.052ZM42.5301 21.9282C43.7362 23.7134 45.3309 25.1908 47.1899 26.2455L50.2443 20.6646C49.2294 20.0889 48.3588 19.2822 47.7003 18.3076L42.5301 21.9282ZM47.1899 26.2455C49.0489 27.3001 51.122 27.9033 53.2477 28.0083L53.5516 21.627C52.3911 21.5698 51.2592 21.2404 50.2443 20.6646L47.1899 26.2455ZM53.2477 28.0083C55.0761 28.0986 56.9011 27.818 58.617 27.1862L56.483 21.1782C55.5462 21.5231 54.5499 21.6763 53.5516 21.627L53.2477 28.0083ZM61.9272 24.8523L60.0784 22.2907L55.0217 26.0736L56.8705 28.6353L61.9272 24.8523ZM40.3784 16.7816C40.7495 18.6237 41.4802 20.3743 42.5301 21.9282L47.7003 18.3076C47.127 17.4592 46.7282 16.5035 46.5256 15.4977L40.3784 16.7816ZM40.1493 19.1252L43.2514 19.3275L43.6526 12.9519L40.5505 12.7495L40.1493 19.1252Z" fill="white"/>
</g>
</g>
<g id="Mask group_2">
<mask id="mask2_64_202" style="mask-type:luminance" maskUnits="userSpaceOnUse" x="40" y="0" width="21" height="14">
<g id="Group_3">
<path id="Vector_13" d="M42.1129 6.86217C40.9462 8.8749 40.2948 11.1537 40.2183 13.4895L43.4692 11.6847C43.7088 10.5414 44.1288 9.44058 44.7166 8.42656C45.626 6.8578 46.9078 5.54669 48.4444 4.61354C49.981 3.68039 51.7231 3.1551 53.511 3.08588C54.5986 3.04377 55.6819 3.17125 56.7243 3.46027L60.0241 1.46175C57.969 0.420426 55.69 -0.0787334 53.3961 0.0100816C51.1023 0.0988968 48.867 0.772844 46.8956 1.97007C44.9241 3.16729 43.2796 4.84946 42.1129 6.86217Z" fill="white"/>
</g>
</mask>
<g mask="url(#mask2_64_202)">
<path id="Vector_14" d="M40.2182 13.4885L37.0823 13.3821L36.8994 18.9695L41.7203 16.2931L40.2182 13.4885ZM60.024 1.46082L61.6281 4.20615L66.5731 1.2112L61.422 -1.39894L60.024 1.46082ZM43.4691 11.6838L44.9712 14.4883L46.2368 13.7857L46.5376 12.3504L43.4691 11.6838ZM56.7242 3.45934L55.8997 6.54145L57.1842 6.89762L58.3283 6.20467L56.7242 3.45934ZM43.354 13.595C43.413 11.7939 43.9153 10.0368 44.815 8.48475L39.4107 5.23773C37.9769 7.71117 37.1763 10.5117 37.0823 13.3821L43.354 13.595ZM44.815 8.48475C45.7145 6.93281 46.9826 5.6357 48.5028 4.71253L45.2882 -0.774261C42.8654 0.697031 40.8444 2.76426 39.4107 5.23773L44.815 8.48475ZM48.5028 4.71253C50.0229 3.78937 51.7465 3.2697 53.5152 3.20122L53.2767 -3.18292C50.4578 -3.07377 47.7109 -2.24555 45.2882 -0.774261L48.5028 4.71253ZM53.5152 3.20122C55.284 3.13274 57.0414 3.51763 58.626 4.32058L61.422 -1.39894C58.8965 -2.67864 56.0957 -3.29207 53.2767 -3.18292L53.5152 3.20122ZM53.3917 -0.107121C51.0786 -0.0175655 48.8248 0.661999 46.8369 1.86921L50.0516 7.35601C51.1368 6.69692 52.3674 6.32591 53.6301 6.27702L53.3917 -0.107121ZM46.8369 1.86921C44.849 3.07642 43.1908 4.7726 42.0144 6.8021L47.4187 10.0492C48.0609 8.94112 48.9662 8.01509 50.0516 7.35601L46.8369 1.86921ZM42.0144 6.8021C41.2539 8.11402 40.7105 9.53803 40.4005 11.0171L46.5376 12.3504C46.7068 11.5428 47.0035 10.7654 47.4187 10.0492L42.0144 6.8021ZM41.7203 16.2931L44.9712 14.4883L41.967 8.87923L38.716 10.6841L41.7203 16.2931ZM57.5487 0.377225C56.2002 0.00332117 54.7987 -0.1616 53.3917 -0.107121L53.6301 6.27702C54.3983 6.24728 55.1635 6.3373 55.8997 6.54145L57.5487 0.377225ZM58.4198 -1.28451L55.1201 0.714007L58.3283 6.20467L61.6281 4.20615L58.4198 -1.28451Z" fill="#57585A"/>
</g>
</g>
<g id="Mask group_3">
<mask id="mask3_64_202" style="mask-type:luminance" maskUnits="userSpaceOnUse" x="61" y="2" width="7" height="24">
<g id="Group_4">
<path id="Vector_15" d="M66.141 7.46148C65.0746 5.39186 63.31 3.5247 61.3999 2.22852V6.09588C62.2284 6.90536 62.9264 7.84848 63.4636 8.89124C64.2947 10.5044 64.7145 12.3042 64.6845 14.1255C64.6545 15.9468 64.1758 17.7313 63.2921 19.3152C62.7546 20.2787 62.0776 21.1492 61.2874 21.8991L61.2185 25.8076C63.1702 24.5772 64.7871 22.8675 65.9209 20.8354C67.0547 18.8033 67.669 16.5138 67.7074 14.1771C67.7458 11.8403 67.2072 9.53114 66.141 7.46148Z" fill="white"/>
</g>
</mask>
<g mask="url(#mask3_64_202)">
<path id="Vector_16" d="M61.4 2.22975L63.1401 -0.428308L58.2623 -3.73828L58.2624 2.22976L61.4 2.22975ZM61.4 6.09711L58.2624 6.09712V7.45898L59.2275 8.4019L61.4 6.09711ZM61.2874 21.9004L59.148 19.5638L58.1742 20.4879L58.1503 21.8431L61.2874 21.9004ZM61.2185 25.8088L58.0815 25.7515L57.9783 31.6085L62.8703 28.5247L61.2185 25.8088ZM68.9193 5.97894C67.5749 3.36904 65.4217 1.11997 63.1401 -0.428308L59.6598 4.88781C61.1984 5.9319 62.5745 7.41716 63.3624 8.94654L68.9193 5.97894ZM58.2624 2.22976V6.09712L64.5376 6.09711V2.22974L58.2624 2.22976ZM59.2275 8.4019C59.8127 8.97368 60.3056 9.63982 60.6851 10.3763L66.2422 7.40872C65.5471 6.05969 64.6442 4.83953 63.5724 3.79232L59.2275 8.4019ZM60.6851 10.3763C61.2721 11.5156 61.5686 12.7868 61.5474 14.0732L67.8217 14.1802C67.8604 11.824 67.3173 9.49561 66.2422 7.40872L60.6851 10.3763ZM61.5474 14.0732C61.5262 15.3596 61.1881 16.62 60.5639 17.7387L66.0203 20.8941C67.1635 18.845 67.7829 16.5364 67.8217 14.1802L61.5474 14.0732ZM60.5639 17.7387C60.1843 18.4192 59.7062 19.034 59.148 19.5638L63.4268 24.237C64.4492 23.2668 65.3249 22.1406 66.0203 20.8941L60.5639 17.7387ZM58.1503 21.8431L58.0815 25.7515L64.3557 25.8661L64.4245 21.9577L58.1503 21.8431ZM62.8703 28.5247C65.2688 27.0127 67.2559 24.9116 68.6494 22.4143L63.1927 19.2589C62.3185 20.8259 61.0717 22.1442 59.5668 23.0929L62.8703 28.5247ZM68.6494 22.4143C70.0427 19.9171 70.7975 17.1034 70.8444 14.2318L64.5703 14.1248C64.5406 15.9266 64.067 17.692 63.1927 19.2589L68.6494 22.4143ZM70.8444 14.2318C70.892 11.3601 70.2297 8.52236 68.9193 5.97894L63.3624 8.94654C64.1846 10.5424 64.5999 12.3229 64.5703 14.1248L70.8444 14.2318Z" fill="white"/>
</g>
</g>
<path id="Vector_17" fill-rule="evenodd" clip-rule="evenodd" d="M0 13.1133V25.9748H5.49078C10.1559 25.9748 10.8164 18.3672 5.49078 18.3672H2.76604V15.5091H7.80266V13.1133H0ZM2.76597 20.4265V23.8731H4.70633C6.81183 23.8731 6.85311 20.4265 4.70633 20.4265H2.76597Z" fill="white"/>
<path id="Vector_18" d="M10.4036 28.4121H0V30.7659H3.71557V41.3157H6.64674V30.7659H10.4036V28.4121Z" fill="#57585A"/>
<path id="Vector_19" d="M30.3025 41.3161V32.1113H33.1098V35.5578H36.4126V32.1113H39.2199V41.3161H36.4126V37.4072H33.1098V41.3161H30.3025Z" fill="#57585A"/>
<path id="Vector_20" d="M52.1006 32.1113H49.4585V41.3161H52.1006L56.1878 35.3477V41.3161H58.7886V32.1113H55.9813L52.1006 37.9957V32.1113Z" fill="#57585A"/>
<path id="Vector_21" d="M67.5821 32.1113H59.6555V34.2969H62.1738V41.3161H65.0638V34.2969H67.5821V32.1113Z" fill="#57585A"/>
</g>
</g>
</g>
</g>
</g>
<defs>
<clipPath id="clip0_64_202">
<rect width="68" height="45" fill="white"/>
</clipPath>
</defs>
</svg>
