<svg width="68" height="45" viewBox="0 0 68 45" fill="none" xmlns="http://www.w3.org/2000/svg">
<g id="svgexport-1 1" clip-path="url(#clip0_64_202)">
<g id="Clip path group">
<mask id="mask0_64_202" style="mask-type:luminance" maskUnits="userSpaceOnUse" x="0" y="0" width="68" height="45">
<g id="clip0_6946_6795">
<path id="Vector" d="M68 0H0V45H68V0Z" fill="white"/>
</g>
</mask>
<g mask="url(#mask0_64_202)">
<g id="Group">
<path id="Vector_2" d="M45.8893 32.2097C45.2798 32.0322 44.6225 31.9435 43.9174 31.9435C43.009 31.9435 42.2202 32.01 41.551 32.1432C41.3261 32.1841 41.1073 32.2295 40.8945 32.2793V34.2132C41.2647 34.0928 41.6508 33.996 42.053 33.923C42.6027 33.8232 43.1106 33.7733 43.5768 33.7733C44.2819 33.7733 44.2944 33.8509 44.6051 34.0062C44.9159 34.1503 45.041 34.4712 45.041 34.7596C45.041 35.1255 44.8705 35.4671 44.3805 35.6003C43.9024 35.7333 43.6724 35.7712 42.788 35.7712H41.802V37.4845H42.8418C43.4752 37.4845 43.6648 37.5234 44.0711 37.601C44.4775 37.6786 44.7822 37.8006 44.9854 37.9669C45.1886 38.1221 45.2887 38.3322 45.2887 38.5424C45.2887 38.7975 45.1706 39.0259 44.9316 39.1812C44.7045 39.3364 44.4655 39.4847 44.0711 39.5512C43.6887 39.6177 43.511 39.6137 43.021 39.6137C42.3649 39.6137 41.7434 39.4637 41.1562 39.322L41.1207 39.3134C40.952 39.2718 40.7906 39.1448 40.6367 39.1005V41.109C41.0192 41.1866 41.4905 41.2744 41.9447 41.3585C42.4401 41.4426 42.8529 41.5266 43.3974 41.5266C44.509 41.5266 45.4173 41.3991 46.1224 41.1441C46.8395 40.8779 47.3653 40.5341 47.7 40.1127C48.0465 39.6802 48.2199 39.0464 48.2199 38.5473C48.2199 38.0926 48.1183 37.7322 47.9151 37.4661C47.7239 37.1888 47.4609 36.9726 47.1263 36.8173C46.7917 36.651 46.4152 36.5235 45.9969 36.4348V36.3516C46.5945 36.2074 47.0665 35.9745 47.4131 35.6529C47.7717 35.3314 47.9509 34.8989 47.9509 34.3555C47.9509 33.801 47.7597 33.3463 47.3773 32.9914C47.0068 32.6366 46.5108 32.376 45.8893 32.2097Z" fill="#57585A"/>
<path id="Vector_3" d="M15.5549 31.9175C16.5778 31.9175 17.9441 32.1374 18.5778 32.9525C19.3623 33.8351 19.735 35.1325 19.735 36.706C19.735 37.7588 19.5386 38.4267 19.2384 39.1512C18.7843 40.1398 18.2427 40.6229 17.7202 40.9852C17.1976 41.3474 16.1776 41.5285 15.4882 41.5285C15.0545 41.5285 14.6765 41.4719 14.354 41.3587C14.0426 41.2455 13.7758 41.0984 13.5535 40.9172C13.331 40.7361 13.0354 40.4697 12.8686 40.2659C12.9131 40.481 12.8464 40.6166 12.8686 40.8543C12.8909 41.0808 12.8686 41.2163 12.8686 41.4428V45.5181H10.0532V32.0873L12.8807 32.1042L12.4216 33.2929H12.9697C13.1365 33.0439 13.3366 32.8175 13.5701 32.6137C13.8036 32.3986 14.0816 32.2288 14.4041 32.1042C14.7376 31.9798 15.1213 31.9175 15.5549 31.9175ZM14.6866 34.0453C14.253 34.0453 13.9621 34.2004 13.7063 34.3815C13.4174 34.6344 13.2522 34.8018 13.0871 35.1381C12.9759 35.5004 12.8797 35.8626 12.8686 36.4173V36.6891C12.8686 37.289 12.9242 37.7984 13.0354 38.2173C13.1466 38.6248 13.3357 38.9361 13.6025 39.1512C13.8693 39.3663 14.2307 39.4739 14.6866 39.4739C15.0647 39.4739 15.691 39.2621 15.9357 39.047C16.1803 38.8319 16.4739 38.5832 16.5963 38.1644C16.7185 37.7455 16.7673 37.272 16.7673 36.672C16.7673 35.7664 16.6283 35.0872 16.3504 34.6344C16.1177 34.2555 15.2759 34.0453 14.6866 34.0453Z" fill="#57585A"/>
<path id="Vector_4" d="M36.165 16.7286H28.7751V18.9344H31.1284V25.9335H33.8531V18.9344H36.165V16.7286Z" fill="#A70A13"/>
<path id="Vector_5" d="M21.6743 16.7702H19.2798V25.975H21.6743L25.4311 19.9225V25.975H27.8669V16.7702H25.3073L21.6743 22.4864V16.7702Z" fill="#A70A13"/>
<path id="Vector_6" d="M21.9218 12.3571H20.0227C20.3117 16.224 26.5869 16.6863 27.2474 12.3571H25.3071C25.0594 14.6688 22.3346 14.5847 21.9218 12.3571Z" fill="#A70A13"/>
<path id="Vector_7" d="M13.7895 16.5079C15.0126 16.5079 15.9466 16.789 16.5915 17.3323C17.2475 17.8645 17.5756 18.6852 17.5756 19.7945V25.9755H15.1071V24.7189H15.0277C14.7719 25.0472 14.7277 25.2561 14.4497 25.4711C14.1828 25.6862 13.9118 25.9019 13.5559 25.9925C13.2113 26.0944 12.7832 26.1453 12.2717 26.1453C11.738 26.1453 11.502 26.0434 11.0684 25.8397C10.6458 25.6246 10.3123 25.302 10.0676 24.8718C9.82302 24.4303 9.70068 23.8756 9.70068 23.2077C9.70068 22.2228 10.0399 21.4983 10.7181 21.0342C11.3964 20.5587 12.1661 20.2143 13.5226 20.169L15.1071 20.1181V19.7945C15.1071 19.3078 14.9793 18.9512 14.7235 18.7248C14.4788 18.4984 14.1341 18.3852 13.6894 18.3852C13.2446 18.3852 12.811 18.4531 12.3885 18.589C11.9659 18.7135 10.9755 19.3103 10.553 19.5027V17.4432C11.0422 17.1828 11.3534 17.0229 11.9214 16.8127C12.5219 16.6655 13.1445 16.5079 13.7895 16.5079ZM14.1397 21.7134C13.3392 21.736 12.9483 21.8832 12.637 22.1549C12.3256 22.4265 12.17 22.7832 12.17 23.2246C12.17 23.6096 12.2811 23.8869 12.5036 24.0567C12.7259 24.2152 12.8499 24.2945 13.2057 24.2945C13.7394 24.2945 14.1898 24.1359 14.5567 23.819C14.9236 23.4907 15.1071 23.0322 15.1071 22.4435V21.6794L14.1397 21.7134Z" fill="#A70A13"/>
<path id="Vector_8" d="M24.4797 31.8596C25.8006 31.8596 26.8092 32.1416 27.5057 32.6867C28.2142 33.2204 28.5685 34.0437 28.5685 35.1565V41.3565H25.9027V40.0961H25.8168C25.5407 40.4254 25.4929 40.6349 25.1927 40.8506C24.9045 41.0664 24.6117 41.2827 24.2275 41.3735C23.8552 41.4757 23.3929 41.5268 22.8405 41.5268C22.2641 41.5268 22.0093 41.4246 21.5409 41.2203C21.0846 41.0045 20.7244 40.6809 20.4602 40.2494C20.196 39.8065 20.064 39.2501 20.064 38.5802C20.064 37.5922 20.4302 36.8654 21.1627 36.3999C21.8952 35.923 22.7264 35.5775 24.1914 35.5321L25.9027 35.481V35.1565C25.9027 34.6682 25.7645 34.3105 25.4883 34.0834C25.2241 33.8563 24.8519 33.7427 24.3716 33.7427C23.8912 33.7427 23.4229 33.8109 22.9666 33.9472C22.5103 34.0721 21.4407 34.6707 20.9843 34.8637V32.7979C21.5127 32.5367 21.8488 32.3762 22.4623 32.1654C23.1107 32.0178 23.7832 31.8596 24.4797 31.8596ZM24.8579 37.0812C23.9933 37.1039 23.5713 37.2515 23.235 37.5241C22.8987 37.7966 22.7307 38.1543 22.7307 38.5972C22.7307 38.9833 22.8507 39.2615 23.0909 39.4318C23.3311 39.5908 23.4649 39.6703 23.8492 39.6703C24.4256 39.6703 24.912 39.5113 25.3082 39.1933C25.7045 38.864 25.9027 38.4041 25.9027 37.8136V37.0472L24.8579 37.0812Z" fill="#57585A"/>
<path id="Vector_9" d="M60.3987 2.35344L40.541 14.7947L53.2153 15.5092L60.3987 2.35344Z" fill="#EE1B2C"/>
<path id="Vector_10" d="M53.2153 15.5092L60.3988 2.35344V26.2692L53.2153 15.5092Z" fill="#A70A13"/>
<g id="Mask group">
<mask id="mask1_64_202" style="mask-type:luminance" maskUnits="userSpaceOnUse" x="40" y="15" width="20" height="13">
<g id="Group_2">
<path id="Vector_11" d="M53.2532 27.8923C55.3613 27.9964 57.4644 27.6034 59.3988 26.7441L57.55 24.1824C56.2236 24.6708 54.813 24.8877 53.3996 24.8179C51.7566 24.7368 50.1541 24.2704 48.7171 23.4552C47.2801 22.6401 46.0474 21.498 45.1152 20.1182C44.3036 18.917 43.7388 17.5638 43.4519 16.14L40.3499 15.9376C40.6498 18.0645 41.4282 20.0922 42.6242 21.8626C43.8204 23.633 45.4018 25.0982 47.2455 26.144C49.0891 27.19 51.1451 27.7883 53.2532 27.8923Z" fill="white"/>
</g>
</mask>
<g mask="url(#mask1_64_202)">
<path id="Vector_12" d="M59.3988 26.7441L60.6537 29.6718L64.2518 28.0733L61.9272 24.8525L59.3988 26.7441ZM40.3499 15.9376L40.5505 12.7497L36.6951 12.4983L37.2441 16.3916L40.3499 15.9376ZM57.5501 24.1824L60.0784 22.2909L58.6893 20.3662L56.483 21.1785L57.5501 24.1824ZM43.452 16.14L46.5256 15.498L46.044 13.1081L43.6526 12.9521L43.452 16.14ZM58.144 23.8163C56.6524 24.4789 55.0307 24.7819 53.4052 24.7017L53.1012 31.083C55.6919 31.2108 58.2765 30.7279 60.6537 29.6718L58.144 23.8163ZM53.4052 24.7017C51.7796 24.6214 50.1944 24.1601 48.7728 23.3536L45.7183 28.9345C47.984 30.2198 50.5106 30.9551 53.1012 31.083L53.4052 24.7017ZM48.7728 23.3536C47.3511 22.5471 46.1316 21.4174 45.2093 20.0523L40.0392 23.6729C41.5091 25.8486 43.4526 27.6492 45.7183 28.9345L48.7728 23.3536ZM45.2093 20.0523C44.2871 18.6871 43.6869 17.1236 43.4556 15.4836L37.2441 16.3916C37.6127 19.0054 38.5693 21.4973 40.0392 23.6729L45.2093 20.0523ZM42.5301 21.9285C43.7362 23.7136 45.3309 25.1911 47.1899 26.2457L50.2443 20.6648C49.2294 20.0891 48.3588 19.2824 47.7003 18.3079L42.5301 21.9285ZM47.1899 26.2457C49.0489 27.3003 51.122 27.9036 53.2477 28.0086L53.5516 21.6273C52.3911 21.57 51.2592 21.2406 50.2443 20.6648L47.1899 26.2457ZM53.2477 28.0086C55.0761 28.0988 56.9011 27.8182 58.617 27.1864L56.483 21.1785C55.5462 21.5234 54.5499 21.6766 53.5516 21.6273L53.2477 28.0086ZM61.9272 24.8525L60.0784 22.2909L55.0217 26.0739L56.8705 28.6355L61.9272 24.8525ZM40.3784 16.7819C40.7495 18.6239 41.4802 20.3745 42.5301 21.9285L47.7003 18.3079C47.127 17.4594 46.7282 16.5037 46.5256 15.498L40.3784 16.7819ZM40.1493 19.1255L43.2514 19.3278L43.6526 12.9521L40.5505 12.7497L40.1493 19.1255Z" fill="#EE1B2C"/>
</g>
</g>
<g id="Mask group_2">
<mask id="mask2_64_202" style="mask-type:luminance" maskUnits="userSpaceOnUse" x="40" y="0" width="21" height="14">
<g id="Group_3">
<path id="Vector_13" d="M42.1129 6.86217C40.9462 8.8749 40.2948 11.1537 40.2183 13.4895L43.4692 11.6847C43.7088 10.5414 44.1288 9.44058 44.7166 8.42656C45.626 6.8578 46.9078 5.54669 48.4444 4.61354C49.981 3.68039 51.7231 3.1551 53.511 3.08588C54.5986 3.04377 55.6819 3.17125 56.7243 3.46027L60.0241 1.46175C57.969 0.420426 55.69 -0.0787334 53.3961 0.0100816C51.1023 0.0988968 48.867 0.772844 46.8956 1.97007C44.9241 3.16729 43.2796 4.84946 42.1129 6.86217Z" fill="white"/>
</g>
</mask>
<g mask="url(#mask2_64_202)">
<path id="Vector_14" d="M40.2182 13.4895L37.0823 13.3831L36.8994 18.9704L41.7203 16.294L40.2182 13.4895ZM60.024 1.46175L61.6281 4.20708L66.5731 1.21213L61.422 -1.39801L60.024 1.46175ZM43.4691 11.6847L44.9712 14.4892L46.2368 13.7866L46.5376 12.3513L43.4691 11.6847ZM56.7242 3.46027L55.8997 6.54238L57.1842 6.89855L58.3283 6.2056L56.7242 3.46027ZM43.354 13.5959C43.413 11.7948 43.9153 10.0377 44.815 8.48568L39.4107 5.23866C37.9769 7.7121 37.1763 10.5126 37.0823 13.3831L43.354 13.5959ZM44.815 8.48568C45.7145 6.93374 46.9826 5.63663 48.5028 4.71346L45.2882 -0.77333C42.8654 0.697962 40.8444 2.76519 39.4107 5.23866L44.815 8.48568ZM48.5028 4.71346C50.0229 3.7903 51.7465 3.27063 53.5152 3.20215L53.2767 -3.18199C50.4578 -3.07284 47.7109 -2.24462 45.2882 -0.77333L48.5028 4.71346ZM53.5152 3.20215C55.284 3.13367 57.0414 3.51856 58.626 4.32151L61.422 -1.39801C58.8965 -2.67771 56.0957 -3.29114 53.2767 -3.18199L53.5152 3.20215ZM53.3917 -0.10619C51.0786 -0.0166347 48.8248 0.66293 46.8369 1.87014L50.0516 7.35695C51.1368 6.69785 52.3674 6.32684 53.6301 6.27795L53.3917 -0.10619ZM46.8369 1.87014C44.849 3.07735 43.1908 4.77354 42.0144 6.80304L47.4187 10.0501C48.0609 8.94205 48.9662 8.01602 50.0516 7.35695L46.8369 1.87014ZM42.0144 6.80304C41.2539 8.11495 40.7105 9.53896 40.4005 11.0181L46.5376 12.3513C46.7068 11.5437 47.0035 10.7663 47.4187 10.0501L42.0144 6.80304ZM41.7203 16.294L44.9712 14.4892L41.967 8.88016L38.716 10.685L41.7203 16.294ZM57.5487 0.378156C56.2002 0.00425196 54.7987 -0.160669 53.3917 -0.10619L53.6301 6.27795C54.3983 6.24821 55.1635 6.33823 55.8997 6.54238L57.5487 0.378156ZM58.4198 -1.28358L55.1201 0.714938L58.3283 6.2056L61.6281 4.20708L58.4198 -1.28358Z" fill="#57585A"/>
</g>
</g>
<g id="Mask group_3">
<mask id="mask3_64_202" style="mask-type:luminance" maskUnits="userSpaceOnUse" x="61" y="2" width="7" height="24">
<g id="Group_4">
<path id="Vector_15" d="M66.141 7.46065C65.0746 5.39103 63.31 3.52387 61.3999 2.22769V6.09505C62.2284 6.90453 62.9264 7.84765 63.4636 8.89041C64.2947 10.5036 64.7145 12.3033 64.6845 14.1247C64.6545 15.946 64.1758 17.7305 63.2921 19.3143C62.7546 20.2778 62.0776 21.1483 61.2874 21.8983L61.2185 25.8067C63.1702 24.5764 64.7871 22.8667 65.9209 20.8346C67.0547 18.8025 67.669 16.513 67.7074 14.1762C67.7458 11.8395 67.2072 9.53031 66.141 7.46065Z" fill="white"/>
</g>
</mask>
<g mask="url(#mask3_64_202)">
<path id="Vector_16" d="M61.4 2.22769L63.1401 -0.430371L58.2623 -3.74035L58.2624 2.22769L61.4 2.22769ZM61.4 6.09505L58.2624 6.09506V7.45692L59.2275 8.39984L61.4 6.09505ZM61.2874 21.8983L59.148 19.5617L58.1742 20.4859L58.1503 21.8411L61.2874 21.8983ZM61.2185 25.8067L58.0815 25.7494L57.9783 31.6065L62.8703 28.5226L61.2185 25.8067ZM68.9193 5.97688C67.5749 3.36698 65.4217 1.1179 63.1401 -0.430371L59.6598 4.88575C61.1984 5.92984 62.5745 7.4151 63.3624 8.94448L68.9193 5.97688ZM58.2624 2.22769V6.09506L64.5376 6.09504V2.22768L58.2624 2.22769ZM59.2275 8.39984C59.8127 8.97162 60.3056 9.63775 60.6851 10.3742L66.2422 7.40665C65.5471 6.05762 64.6442 4.83747 63.5724 3.79026L59.2275 8.39984ZM60.6851 10.3742C61.2721 11.5136 61.5686 12.7848 61.5474 14.0712L67.8217 14.1782C67.8604 11.8219 67.3173 9.49355 66.2422 7.40665L60.6851 10.3742ZM61.5474 14.0712C61.5262 15.3575 61.1881 16.6179 60.5639 17.7366L66.0203 20.892C67.1635 18.843 67.7829 16.5344 67.8217 14.1782L61.5474 14.0712ZM60.5639 17.7366C60.1843 18.4172 59.7062 19.032 59.148 19.5617L63.4268 24.2349C64.4492 23.2647 65.3249 22.1385 66.0203 20.892L60.5639 17.7366ZM58.1503 21.8411L58.0815 25.7494L64.3557 25.864L64.4245 21.9556L58.1503 21.8411ZM62.8703 28.5226C65.2688 27.0107 67.2559 24.9096 68.6494 22.4123L63.1927 19.2569C62.3185 20.8239 61.0717 22.1421 59.5668 23.0908L62.8703 28.5226ZM68.6494 22.4123C70.0427 19.915 70.7975 17.1014 70.8444 14.2297L64.5703 14.1227C64.5406 15.9245 64.067 17.6899 63.1927 19.2569L68.6494 22.4123ZM70.8444 14.2297C70.892 11.3581 70.2297 8.5203 68.9193 5.97688L63.3624 8.94448C64.1846 10.5403 64.5999 12.3209 64.5703 14.1227L70.8444 14.2297Z" fill="#EE1B2C"/>
</g>
</g>
<path id="Vector_17" fill-rule="evenodd" clip-rule="evenodd" d="M0 13.1136V25.9752H5.49078C10.1559 25.9752 10.8164 18.3675 5.49078 18.3675H2.76604V15.5094H7.80266V13.1136H0ZM2.76597 20.4269V23.8735H4.70633C6.81183 23.8735 6.85311 20.4269 4.70633 20.4269H2.76597Z" fill="#A70A13"/>
<path id="Vector_18" d="M10.4036 28.413H0V30.7668H3.71557V41.3166H6.64674V30.7668H10.4036V28.413Z" fill="#57585A"/>
<path id="Vector_19" d="M30.3025 41.3166V32.1118H33.1098V35.5583H36.4126V32.1118H39.2199V41.3166H36.4126V37.4077H33.1098V41.3166H30.3025Z" fill="#57585A"/>
<path id="Vector_20" d="M52.1006 32.1118H49.4585V41.3166H52.1006L56.1878 35.3482V41.3166H58.7886V32.1118H55.9813L52.1006 37.9961V32.1118Z" fill="#57585A"/>
<path id="Vector_21" d="M67.5821 32.1118H59.6555V34.2974H62.1738V41.3166H65.0638V34.2974H67.5821V32.1118Z" fill="#57585A"/>
</g>
</g>
</g>
</g>
<defs>
<clipPath id="clip0_64_202">
<rect width="68" height="45" fill="white"/>
</clipPath>
</defs>
</svg>
