<svg width="25" height="25" viewBox="0 0 25 25" fill="none" xmlns="http://www.w3.org/2000/svg">
<g opacity="0.4">
<circle cx="12.5" cy="12.5" r="12.1576" fill="white"/>
<circle cx="12.5" cy="12.5" r="12.1576" fill="url(#paint0_linear_107_261)"/>
<circle cx="12.5" cy="12.5" r="12.1576" stroke="url(#paint1_linear_107_261)" stroke-width="0.684729"/>
<mask id="mask0_107_261" style="mask-type:alpha" maskUnits="userSpaceOnUse" x="-1" y="-1" width="26" height="26">
<circle cx="12.4993" cy="12.4979" r="12.5" fill="#E7E7E7"/>
</mask>
<g mask="url(#mask0_107_261)">
<path fill-rule="evenodd" clip-rule="evenodd" d="M11.2153 4.15495C10.5864 4.24348 9.77029 4.51085 9.32882 4.77284C8.54564 5.2377 8.11343 5.77912 7.77011 6.72546C7.55774 7.3107 7.53786 7.46812 7.53956 8.54697C7.541 9.45283 7.58519 9.92332 7.72932 10.567C7.91627 11.4021 7.91636 11.4073 7.75056 11.6092C7.51024 11.9021 7.46069 12.2254 7.5744 12.7599C7.6955 13.3288 7.93293 13.7232 8.2488 13.8797C8.42794 13.9686 8.49745 14.0764 8.54011 14.3324C8.62526 14.8425 9.08773 15.8316 9.4098 16.1921L9.6967 16.5133V17.542C9.6967 18.3995 9.66925 18.6223 9.53175 18.8806C9.19633 19.5106 8.5187 19.9109 6.40286 20.7286C5.37162 21.127 4.59499 21.4864 4.01593 21.833C3.84895 21.9329 3.79269 21.9009 3.2817 21.4156L2.72831 20.89V21.5921V22.2941L3.21695 22.7226C3.88957 23.3123 4.7703 23.9364 5.55569 24.38C6.73828 25.0478 6.19296 24.9982 12.3202 24.9969L17.8123 24.9957L18.6386 24.5693C19.6347 24.0552 20.6286 23.3596 21.5727 22.5158L22.2738 21.8892L22.2728 21.1021L22.2719 20.3152L22.0427 20.6002C21.9166 20.757 21.5746 21.1235 21.2826 21.4146L20.7518 21.944L20.5143 21.7991C20.0336 21.5059 19.144 21.1007 18.0673 20.6847C15.9889 19.8817 15.1676 19.3481 14.9724 18.6742C14.9223 18.5017 14.8813 17.945 14.881 17.437L14.8805 16.5133L15.1749 16.1838C15.5035 15.8158 15.9487 14.8619 16.0361 14.3386C16.0809 14.0697 16.147 13.9696 16.3441 13.872C16.9359 13.5787 17.2556 12.1694 16.8497 11.6433L16.6548 11.3906L16.8277 10.735C17.3817 8.63566 17.2513 6.91139 16.4634 5.9179C16.1598 5.53496 15.5127 5.15455 15.0322 5.07645C14.8336 5.04412 14.6675 4.95348 14.5845 4.83213C14.1844 4.24698 12.692 3.94703 11.2153 4.15495Z" fill="white" fill-opacity="0.25"/>
</g>
</g>
<defs>
<linearGradient id="paint0_linear_107_261" x1="12.5" y1="0" x2="12.5" y2="25" gradientUnits="userSpaceOnUse">
<stop stop-color="#6C6E73"/>
<stop offset="1" stop-color="#57585A"/>
</linearGradient>
<linearGradient id="paint1_linear_107_261" x1="12.5" y1="2.59633e-07" x2="21.2118" y2="44.3815" gradientUnits="userSpaceOnUse">
<stop stop-color="#F9F1E8"/>
<stop offset="1" stop-color="#F9F1E8" stop-opacity="0"/>
</linearGradient>
</defs>
</svg>
