<svg xmlns="http://www.w3.org/2000/svg" viewBox="0 0 21 21" fill="currentColor"><path fill-rule="evenodd" clip-rule="evenodd" d="M17.3038 3.87622C17.5201 3.78521 17.7567 3.75382 17.9892 3.78532C18.2217 3.81682 18.4415 3.91005 18.6257 4.05532C18.8099 4.20058 18.9518 4.39257 19.0367 4.61129C19.1215 4.83001 19.1462 5.06748 19.1081 5.29897L17.1236 17.3363C16.9311 18.4975 15.6571 19.1633 14.5922 18.585C13.7015 18.1011 12.3785 17.3556 11.1885 16.5777C10.5935 16.1883 8.77084 14.9415 8.99484 14.0542C9.18734 13.2956 12.2498 10.4448 13.9998 8.74997C14.6867 8.08409 14.3735 7.69997 13.5623 8.31247C11.5481 9.83322 8.31409 12.1458 7.24484 12.7968C6.30159 13.3708 5.80984 13.4688 5.22184 13.3708C4.14909 13.1923 3.15421 12.9158 2.34221 12.579C1.24496 12.124 1.29834 10.6155 2.34134 10.1762L17.3038 3.87622Z"/></svg>
